<svg xmlns="http://www.w3.org/2000/svg" xmlns:xlink="http://www.w3.org/1999/xlink" width="65.417" height="65.417" viewBox="0 0 65.417 65.417">
  <defs>
    <clipPath id="clip-path">
      <path id="Path_5" data-name="Path 5" d="M1250.718,370.353a32.5,32.5,0,1,1,32.5,32.5A32.5,32.5,0,0,1,1250.718,370.353Z" transform="translate(-1250.718 -337.855)" fill="none"/>
    </clipPath>
  </defs>
  <g id="logo" transform="translate(0.208 0.208)">
    <g id="Group_7" data-name="Group 7">
      <g id="Group_6" data-name="Group 6">
        <g id="Group_1" data-name="Group 1">
          <path id="Path_1" data-name="Path 1" d="M1250.718,370.353a32.5,32.5,0,1,1,32.5,32.5A32.5,32.5,0,0,1,1250.718,370.353Z" transform="translate(-1250.718 -337.855)" fill="#034ea2"/>
          <path id="Path_2" data-name="Path 2" d="M1285.456,372.591" transform="translate(-1252.96 -340.093)" fill="#034ea2"/>
        </g>
        <g id="Group_4" data-name="Group 4">
          <g id="Group_3" data-name="Group 3" clip-path="url(#clip-path)">
            <g id="Group_2" data-name="Group 2" transform="translate(31.711 1.604)">
              <path id="Path_3" data-name="Path 3" d="M1298.276,339.569s-.452,5.73,2.82,8.428c.361.311-3.682.2-5.177-1.015-1.609-1.316-6.64-3.166-9.064-.466a4.852,4.852,0,0,1,2.225.053,3.568,3.568,0,0,1,2.18,1.482,8.279,8.279,0,0,0,1.962,2.534,7.54,7.54,0,0,0,3.839,2.473c.572.165-.384,1.4-2.326,1.738-1.006.18-3.852.1-5.5.619-1.363.443-3.455.864-4.619,3.375,0,0,.488-.226,5.626,1.618,3.094,1.114,6.8-.658,6.8-.658s.753-.1-.167,1.4a19.974,19.974,0,0,1-4.221,3.221s-4.449,2.684-3.768,6.848c0,0,1.593-2.906,3.817-2.281,0,0,3.047-2.39,4.3-1.185s.273,3.4.323,4.365c.054,1.438-.829,3.751,1.348,7.144.285.449.45-2.195,1.124-3.382a6.332,6.332,0,0,1,5.142-2.423c1.407.1,2.615.292,2.715.926s-.533,2.184.63,4.159a9.209,9.209,0,0,0,3.211,2.912s-1.563-2.233-.85-3.885a28.714,28.714,0,0,0,1.746-4.725,24.632,24.632,0,0,0,.165-4.266c0-.274,1.745,1.186,3.155,2.975a11.507,11.507,0,0,1,1.946,3.559c.344.768,3.288-10.984-4.11-22.206a61.054,61.054,0,0,0-6.285-7.692A28.891,28.891,0,0,0,1298.276,339.569Z" transform="translate(-1284.617 -339.569)" fill="#fd0" fill-rule="evenodd"/>
              <path id="Path_4" data-name="Path 4" d="M1298.276,339.569s-.452,5.73,2.82,8.428c.361.311-3.682.2-5.177-1.015-1.609-1.316-6.64-3.166-9.064-.466a4.852,4.852,0,0,1,2.225.053,3.568,3.568,0,0,1,2.18,1.482,8.279,8.279,0,0,0,1.962,2.534,7.54,7.54,0,0,0,3.839,2.473c.572.165-.384,1.4-2.326,1.738-1.006.18-3.852.1-5.5.619-1.363.443-3.455.864-4.619,3.375,0,0,.488-.226,5.626,1.618,3.094,1.114,6.8-.658,6.8-.658s.753-.1-.167,1.4a19.974,19.974,0,0,1-4.221,3.221s-4.449,2.684-3.768,6.848c0,0,1.593-2.906,3.817-2.281,0,0,3.047-2.39,4.3-1.185s.273,3.4.323,4.365c.054,1.438-.829,3.751,1.348,7.144.285.449.45-2.195,1.124-3.382a6.332,6.332,0,0,1,5.142-2.423c1.407.1,2.615.292,2.715.926s-.533,2.184.63,4.159a9.209,9.209,0,0,0,3.211,2.912s-1.563-2.233-.85-3.885a28.714,28.714,0,0,0,1.746-4.725,24.632,24.632,0,0,0,.165-4.266c0-.274,1.745,1.186,3.155,2.975a11.507,11.507,0,0,1,1.946,3.559c.344.768,3.288-10.984-4.11-22.206a61.054,61.054,0,0,0-6.285-7.692A28.891,28.891,0,0,0,1298.276,339.569Z" transform="translate(-1284.617 -339.569)" fill="none" stroke="#fd0" stroke-miterlimit="3.864" stroke-width="1" fill-rule="evenodd"/>
            </g>
          </g>
        </g>
        <g id="Group_5" data-name="Group 5">
          <path id="Path_6" data-name="Path 6" d="M1250.718,370.353a32.5,32.5,0,1,1,32.5,32.5A32.5,32.5,0,0,1,1250.718,370.353Z" transform="translate(-1250.718 -337.855)" fill="none" stroke="#fff" stroke-miterlimit="3.864" stroke-width="0.417"/>
          <path id="Path_7" data-name="Path 7" d="M1285.456,372.591" transform="translate(-1252.96 -340.093)" fill="none" stroke="#fff" stroke-miterlimit="3.864" stroke-width="0.417"/>
        </g>
      </g>
    </g>
    <g id="Group_8" data-name="Group 8" transform="translate(1.799 2.271)">
      <path id="Path_8" data-name="Path 8" d="M1277.039,340.243a27.944,27.944,0,1,0,34.252,43.223,30.8,30.8,0,1,1-34.252-43.223Z" transform="translate(-1252.61 -340.243)" fill="#fff" fill-rule="evenodd"/>
      <path id="Path_9" data-name="Path 9" d="M1277.039,340.243a27.944,27.944,0,1,0,34.252,43.223,30.8,30.8,0,1,1-34.252-43.223Z" transform="translate(-1252.61 -340.243)" fill="none" stroke="#fff" stroke-miterlimit="3.864" stroke-width="0.103" fill-rule="evenodd"/>
    </g>
    <g id="Group_9" data-name="Group 9" transform="translate(2.643 4.529)">
      <path id="Path_10" data-name="Path 10" d="M1307.89,387.749a29.944,29.944,0,1,1-35.462-45.132,28.706,28.706,0,0,0,35.462,45.132Z" transform="translate(-1253.497 -342.617)" fill="#00a651" fill-rule="evenodd"/>
    </g>
    <g id="Group_16" data-name="Group 16" transform="translate(15.192 17.286)">
      <g id="Group_10" data-name="Group 10" transform="translate(0 0.426)">
        <path id="Path_11" data-name="Path 11" d="M1271.021,356.94h7.586a4.05,4.05,0,0,1,3.543,2,8.333,8.333,0,0,1,1.225,4.762,9.35,9.35,0,0,1-1.913,6.234,6.136,6.136,0,0,1-4.868,2.182h-2.745l-.983,6.634h-5.039Zm3.647,9.482h1.877c1.191,0,1.821-.576,1.821-2.229,0-.817-.219-1.18-.417-1.322a2.133,2.133,0,0,0-1.185-.236h-1.535Z" transform="translate(-1267.827 -356.94)" fill="#fff" fill-rule="evenodd"/>
      </g>
      <g id="Group_11" data-name="Group 11" transform="translate(14.443 0)">
        <path id="Path_12" data-name="Path 12" d="M1288.043,370.53v.657a2.647,2.647,0,0,0,.472,1.844,1.973,1.973,0,0,0,1.486.432c1.084,0,1.469-.411,1.469-1.388a1.507,1.507,0,0,0-.888-1.406c-.791-.342-1.6-.691-2.376-1.031a6.183,6.183,0,0,1-3.59-5.871,7.353,7.353,0,0,1,2.019-5.517,6.049,6.049,0,0,1,4.433-1.758,5.882,5.882,0,0,1,4.395,1.622c1.285,1.284,1.829,3.208,1.769,5.64l-.008.631h-5v-.643c0-1.178-.442-1.572-1.355-1.572a1.236,1.236,0,0,0-.869.291,1.123,1.123,0,0,0-.359.9.759.759,0,0,0,.273.7,13.136,13.136,0,0,0,1.917.855,6.842,6.842,0,0,1,4.667,6.87,7.558,7.558,0,0,1-1.824,5.173,6.745,6.745,0,0,1-5.271,2.192,5.768,5.768,0,0,1-4.662-2.068,9.054,9.054,0,0,1-1.725-5.9v-.657Z" transform="translate(-1283.014 -356.492)" fill="#fff" fill-rule="evenodd"/>
      </g>
      <g id="Group_12" data-name="Group 12" transform="translate(28.455 0)">
        <path id="Path_13" data-name="Path 13" d="M1300,360.379c1.6-2.542,3.734-3.887,6.392-3.887a6.287,6.287,0,0,1,4.573,1.758c1.677,1.63,2.44,4.207,2.44,7.559a17.852,17.852,0,0,1-2.212,9.393,7.38,7.38,0,0,1-6.513,3.952,5.992,5.992,0,0,1-5.18-2.663,12.465,12.465,0,0,1-1.755-7.069A16.918,16.918,0,0,1,1300,360.379Zm3.357,12.07a1.737,1.737,0,0,0,1.615,1.014c.854,0,1.7-.587,2.443-2.305a12.053,12.053,0,0,0,.976-4.888c0-3.154-.909-4.1-2.115-4.1-.941,0-1.823.613-2.57,2.314a12.533,12.533,0,0,0-.951,4.97A6.143,6.143,0,0,0,1303.36,372.449Z" transform="translate(-1297.748 -356.492)" fill="#fff" fill-rule="evenodd"/>
      </g>
      <g id="Group_13" data-name="Group 13" transform="translate(0.75 1.077)">
        <path id="Path_14" data-name="Path 14" d="M1268.616,378.132l3.005-20.507h7.025a3.407,3.407,0,0,1,3,1.679,7.88,7.88,0,0,1,1.116,4.427,8.722,8.722,0,0,1-1.755,5.809,5.475,5.475,0,0,1-4.376,1.958h-3.309l-.981,6.634Zm6.091-16.12-.744,5.087h2.621c1.639,0,2.463-.957,2.463-2.872a2.168,2.168,0,0,0-.677-1.845,2.707,2.707,0,0,0-1.567-.37Z" transform="translate(-1268.616 -357.625)" fill="#00a651" fill-rule="evenodd"/>
      </g>
      <g id="Group_14" data-name="Group 14" transform="translate(15.093 0.637)">
        <path id="Path_15" data-name="Path 15" d="M1283.7,371.22h3.717a3.249,3.249,0,0,0,.668,2.3,2.564,2.564,0,0,0,1.952.628c1.412,0,2.129-.679,2.129-2.036a2.166,2.166,0,0,0-1.263-1.987c-.8-.336-1.593-.684-2.381-1.033a5.522,5.522,0,0,1-3.225-5.289,6.8,6.8,0,0,1,1.824-5.062,5.481,5.481,0,0,1,3.985-1.576,5.29,5.29,0,0,1,3.936,1.437c1.107,1.11,1.635,2.84,1.582,5.177H1292.9c0-1.476-.667-2.22-2-2.22a1.936,1.936,0,0,0-1.28.433,1.752,1.752,0,0,0-.606,1.408,1.373,1.373,0,0,0,.567,1.236,13.525,13.525,0,0,0,2.041.917,6.2,6.2,0,0,1,4.257,6.271,6.87,6.87,0,0,1-1.651,4.743,6.122,6.122,0,0,1-4.793,1.973,5.1,5.1,0,0,1-4.158-1.836A8.26,8.26,0,0,1,1283.7,371.22Z" transform="translate(-1283.697 -357.162)" fill="#00a651" fill-rule="evenodd"/>
      </g>
      <g id="Group_15" data-name="Group 15" transform="translate(29.102 0.637)">
        <path id="Path_16" data-name="Path 16" d="M1298.428,369.455a16.326,16.326,0,0,1,2.151-8.7q2.255-3.593,5.849-3.588a5.689,5.689,0,0,1,4.124,1.576c1.5,1.458,2.241,3.82,2.241,7.1a17.2,17.2,0,0,1-2.115,9.046,6.742,6.742,0,0,1-5.961,3.65,5.327,5.327,0,0,1-4.647-2.38A11.853,11.853,0,0,1,1298.428,369.455Zm3.725.033a6.744,6.744,0,0,0,.676,3.306,2.369,2.369,0,0,0,2.179,1.35c1.242,0,2.255-.9,3.041-2.706a12.61,12.61,0,0,0,1.03-5.136q0-4.743-2.768-4.745c-1.324,0-2.372.905-3.167,2.708A13.075,13.075,0,0,0,1302.153,369.488Z" transform="translate(-1298.428 -357.162)" fill="#00a651" fill-rule="evenodd"/>
      </g>
    </g>
  </g>
</svg>
